<svg version="1.1" viewBox="0 0 96 96" xmlns="http://www.w3.org/2000/svg" xmlns:xlink="http://www.w3.org/1999/xlink" id="Icons_SpeakerPhone" overflow="hidden"><path d=" M 37 40.08 C 37.5384 39.5214 37.8395 38.7759 37.84 38 C 37.8433 37.2117 37.5298 36.455 36.97 35.9 L 27.49 26.41 C 26.9304 25.8497 26.1719 25.5333 25.38 25.53 C 24.5916 25.536 23.8372 25.8521 23.28 26.41 L 22.23 27.47 L 35.91 41.12 Z"/><path d=" M 50.75 64.36 C 50.1767 64.9427 49.2397 64.9503 48.657 64.377 C 48.6513 64.3714 48.6456 64.3657 48.64 64.36 L 31.64 47.36 C 31.0551 46.7744 31.0551 45.8256 31.64 45.24 L 33.76 43.18 L 20.13 29.56 C 19.25 30.44 18.39 31.3 17.83 31.83 C 16.4585 33.1117 15.6376 34.8754 15.54 36.75 C 15.4163 39.8077 15.9624 42.8555 17.14 45.68 C 18.2684 48.211 19.6522 50.6201 21.27 52.87 C 26.8963 61.3112 34.0123 68.6576 42.27 74.55 C 43.6487 75.5698 45.0991 76.4888 46.61 77.3 C 50.0246 79.0946 53.7656 80.1829 57.61 80.5 C 60.2395 80.6913 62.8139 79.6799 64.61 77.75 L 66.49 75.87 L 52.81 62.24 Z"/><path d=" M 69.63 68.51 L 60.15 59 C 58.9811 57.8434 57.0989 57.8434 55.93 59 L 54.93 60.08 L 68.57 73.78 L 69.63 72.78 C 70.7866 71.6111 70.7866 69.7289 69.63 68.56 Z"/><path d=" M 62.14 50 L 58.14 50 C 57.7064 44.2632 53.6018 39.4706 48 38.16 L 48 34.08 C 55.8263 35.4807 61.6727 42.063 62.14 50 Z"/><path d=" M 71.7 48 C 71.7 48.67 71.7 49.34 71.61 50 L 67.61 50 C 67.6787 49.3356 67.7121 48.668 67.71 48 C 67.6935 37.1229 58.8771 28.311 48 28.3 L 48 24.3 C 61.0846 24.311 71.689 34.9154 71.7 48 Z"/><path d=" M 82 48 C 82 48.67 82 49.34 81.93 50 L 77.93 50 C 77.93 49.34 78.01 48.67 78.01 48 C 78.01 31.9837 65.0263 19 49.01 19 C 49.0067 19 49.0033 19 49 19 C 48.66 19 48.33 19 48 19 L 48 15 L 49 15 C 67.2254 15 82 29.7746 82 48 Z"/></svg>