<?xml version="1.0" encoding="UTF-8"?><svg xmlns="http://www.w3.org/2000/svg" xmlns:xlink="http://www.w3.org/1999/xlink" contentScriptType="text/ecmascript" fill="#000000" width="500" zoomAndPan="magnify" contentStyleType="text/css" viewBox="0.0 -0.9 500.0 373.2" height="373.2" preserveAspectRatio="xMidYMid meet" version="1"><defs><clipPath id="a"><path d="M 0 83 L 500 83 L 500 372.238281 L 0 372.238281 Z M 0 83"/></clipPath></defs><g><g id="change1_1" clip-path="url(#a)"><path fill="#efae1d" d="M 315.519531 110.675781 C 306.269531 110.675781 294.757812 118.488281 288.796875 127.945312 C 282.835938 137.398438 285.921875 156.925781 294.140625 166.175781 C 302.363281 175.425781 317.574219 174.601562 317.574219 176.660156 C 317.574219 176.660156 319.566406 166.808594 326.664062 166.691406 C 333.761719 166.574219 337.039062 172.808594 337.039062 172.808594 L 337.054688 172.8125 C 337.242188 172.144531 337.519531 171.621094 337.925781 171.316406 C 343.0625 167.410156 349.230469 157.335938 350.667969 149.527344 C 352.105469 141.714844 347.996094 128.765625 343.679688 121.777344 C 339.363281 114.789062 324.769531 110.675781 315.519531 110.675781 Z M 253.238281 306.257812 C 235.015625 306.257812 220.246094 321.027344 220.246094 339.246094 C 220.246094 357.46875 235.015625 372.238281 253.238281 372.238281 C 271.457031 372.238281 286.226562 357.46875 286.226562 339.246094 C 286.226562 321.027344 271.457031 306.257812 253.238281 306.257812 Z M 469.269531 243.769531 C 452.300781 243.769531 438.539062 257.527344 438.539062 274.5 C 438.539062 291.472656 452.300781 305.230469 469.269531 305.230469 C 486.242188 305.230469 500 291.472656 500 274.5 C 500 257.527344 486.242188 243.769531 469.269531 243.769531 Z M 217.472656 185.703125 C 220.964844 182.414062 224.871094 181.59375 232.476562 182.414062 C 233.070312 182.476562 233.972656 182.765625 235.132812 183.246094 C 236.871094 177.867188 237.820312 172.132812 237.820312 166.175781 C 237.820312 135.523438 212.972656 110.675781 182.324219 110.675781 C 151.671875 110.675781 126.824219 135.523438 126.824219 166.175781 C 126.824219 181.097656 132.722656 194.632812 142.304688 204.605469 C 146.894531 199.695312 150.351562 196.496094 151.488281 196.597656 C 156.21875 197.007812 162.382812 199.0625 163.824219 205.4375 C 164.742188 209.511719 164.140625 213.25 161.496094 217.617188 C 167.929688 220.226562 174.957031 221.675781 182.324219 221.675781 C 196.632812 221.675781 209.679688 216.253906 219.519531 207.359375 L 210.070312 201.941406 C 210.894531 194.335938 213.976562 188.992188 217.472656 185.703125 Z M 79.753906 110.675781 C 80.371094 117.050781 80.617188 124.097656 80.617188 124.097656 L 73.902344 147.613281 C 73.902344 147.613281 68.449219 165.902344 38.644531 165.832031 C 8.839844 165.765625 -1.644531 136.582031 0.203125 121.679688 C 2.054688 106.773438 8.839844 93.820312 20.761719 87.449219 C 32.683594 81.078125 57.144531 83.339844 65.570312 90.121094 C 73.996094 96.90625 79.136719 104.304688 79.753906 110.675781"/></g><g id="change2_1"><path fill="#00c699" d="M 380.265625 255.179688 L 390.714844 256.59375 C 390.730469 256.121094 390.75 255.652344 390.75 255.179688 C 390.75 230.660156 370.871094 210.78125 346.351562 210.78125 C 321.832031 210.78125 301.953125 230.660156 301.953125 255.179688 C 301.953125 263.460938 304.226562 271.207031 308.175781 277.84375 L 315.3125 271.621094 C 328.46875 272.652344 326.824219 284.160156 326.824219 284.984375 L 320.472656 291.242188 C 327.757812 296.484375 336.691406 299.578125 346.351562 299.578125 C 363.476562 299.578125 378.324219 289.878906 385.734375 275.675781 C 379.65625 274.867188 375.683594 274.28125 375.335938 274.089844 C 373.636719 273.164062 369.476562 270.851562 370.402344 263.296875 C 371.324219 255.742188 380.265625 255.179688 380.265625 255.179688 Z M 85.714844 251.273438 C 64.03125 251.273438 46.453125 268.851562 46.453125 290.535156 C 46.453125 312.214844 64.03125 329.792969 85.714844 329.792969 C 107.398438 329.792969 124.972656 312.214844 124.972656 290.535156 C 124.972656 268.851562 107.398438 251.273438 85.714844 251.273438 Z M 286.84375 23.113281 C 293.164062 38.992188 290.699219 53.175781 289.3125 57.027344 C 287.925781 60.882812 275.28125 74.910156 266.648438 77.6875 C 258.015625 80.460938 243.804688 79.597656 243.804688 79.597656 L 222.722656 70.140625 C 222.722656 70.140625 208.992188 59.804688 210.378906 39.914062 C 211.769531 20.027344 222.40625 9.394531 230.574219 4.769531 C 238.746094 0.144531 251.695312 -0.9375 258.941406 0.757812 C 266.1875 2.453125 280.523438 7.234375 286.84375 23.113281"/></g><g id="change3_1"><path fill="#eb5d4a" d="M 337.054688 172.8125 L 337.039062 172.808594 C 337.039062 172.808594 333.761719 166.574219 326.664062 166.691406 C 319.566406 166.808594 317.574219 176.660156 317.574219 176.660156 C 317.574219 178.714844 325.265625 216.097656 325.265625 216.097656 C 343.511719 222.28125 346.351562 210.78125 346.351562 210.78125 C 346.351562 210.78125 334.847656 180.617188 337.054688 172.8125 Z M 315.3125 271.621094 L 270.183594 310.941406 C 276.398438 314.671875 281.28125 320.394531 283.957031 327.222656 L 326.824219 284.984375 C 326.824219 284.160156 328.46875 272.652344 315.3125 271.621094 Z M 440.632812 263.355469 L 380.265625 255.179688 C 380.265625 255.179688 371.324219 255.742188 370.402344 263.296875 C 369.476562 270.851562 373.636719 273.164062 375.335938 274.089844 C 376.441406 274.695312 413.726562 279.253906 439.539062 282.292969 C 438.890625 279.804688 438.539062 277.195312 438.539062 274.5 C 438.539062 270.566406 439.285156 266.8125 440.632812 263.355469 Z M 301.984375 253.914062 C 302.265625 243.867188 305.878906 234.65625 311.769531 227.347656 C 310.066406 226.003906 308.273438 224.851562 306.476562 224.140625 C 298.664062 221.058594 240.082031 183.238281 232.476562 182.414062 C 224.871094 181.59375 220.964844 182.414062 217.472656 185.703125 C 213.976562 188.992188 210.894531 194.335938 210.070312 201.941406 L 299.691406 253.328125 C 299.691406 253.328125 300.582031 253.5625 301.984375 253.914062 Z M 151.488281 196.597656 C 146.761719 196.1875 101.953125 252.710938 101.953125 252.710938 L 100.417969 254.132812 C 107.839844 257.132812 114.132812 262.328125 118.488281 268.925781 C 119.320312 267.933594 119.835938 267.308594 119.835938 267.308594 C 119.835938 267.308594 146.96875 234.214844 154.984375 225.785156 C 163 217.359375 165.261719 211.808594 163.824219 205.4375 C 162.382812 199.0625 156.21875 197.007812 151.488281 196.597656 Z M 248.199219 66.691406 C 245.425781 58.058594 234.941406 59.699219 231.652344 59.289062 C 229.027344 58.960938 204.898438 96.921875 195.289062 112.214844 C 203.242188 114.121094 210.523438 117.734375 216.734375 122.648438 C 229.515625 104.035156 250.128906 72.683594 248.199219 66.691406 Z M 126.832031 165.832031 C 105.585938 159.242188 63.148438 145.503906 60.84375 140.277344 C 57.757812 133.285156 65.570312 123.628906 69.066406 121.777344 C 71.691406 120.386719 112.726562 133.964844 132.96875 140.804688 C 129.097656 148.316406 126.886719 156.816406 126.832031 165.832031"/></g><g id="change4_1"><path fill="#fff9f9" d="M 469.621094 295.679688 C 468.625 294.910156 467.257812 294.8125 466.15625 295.433594 C 465.976562 295.535156 465.808594 295.632812 465.621094 295.714844 C 464.574219 296.175781 463.953125 297.539062 463.953125 298.621094 C 463.953125 299.691406 464.449219 300.625 465.28125 301.269531 C 467.226562 302.769531 469.8125 301.742188 470.570312 299.519531 L 470.628906 299.359375 C 470.644531 299.308594 470.652344 299.253906 470.664062 299.199219 C 470.691406 299.121094 470.710938 299.039062 470.738281 298.957031 C 471.132812 297.777344 470.554688 296.402344 469.621094 295.679688 Z M 460.597656 251.949219 C 454.882812 257.316406 450.535156 265.425781 449.785156 273.292969 C 449.230469 279.117188 449.371094 289.714844 456.246094 291.78125 C 457.226562 292.074219 458.402344 291.253906 458.335938 290.191406 C 457.941406 284.023438 454.90625 279.070312 455.578125 272.492188 C 456.21875 266.253906 458.792969 258.453125 462.582031 253.480469 C 463.476562 252.300781 461.601562 251.007812 460.597656 251.949219 Z M 325.117188 224.242188 C 319.378906 228.511719 316.695312 235.25 314.5 241.878906 C 312.363281 248.324219 310.367188 258.09375 315.15625 263.691406 C 316.132812 264.832031 317.832031 264.078125 318.261719 262.871094 C 320.253906 257.257812 318.390625 250.449219 319.550781 244.460938 C 320.6875 238.601562 322.324219 230.628906 326.808594 226.433594 C 327.9375 225.375 326.40625 223.277344 325.117188 224.242188 Z M 251.246094 358.847656 C 248.984375 357.546875 245.867188 359.675781 246.09375 362.234375 C 246.199219 363.414062 246.652344 364.445312 247.71875 365.066406 C 248.6875 365.636719 250.070312 365.703125 251.03125 365.066406 C 252.351562 364.191406 253.03125 362.972656 252.816406 361.386719 C 252.679688 360.363281 252.171875 359.378906 251.246094 358.847656 Z M 245.105469 315.046875 C 234.5625 319.367188 229.960938 328.9375 228.371094 339.84375 C 227.351562 346.855469 228.945312 358.847656 238.484375 357.503906 C 239.6875 357.335938 239.945312 355.835938 239.523438 354.953125 C 238.484375 352.792969 237.019531 350.796875 236.15625 348.582031 C 234.949219 345.503906 235.15625 342.089844 235.453125 338.84375 C 236.191406 330.71875 238.777344 321.816406 245.960938 317.082031 C 246.949219 316.433594 246.335938 314.542969 245.105469 315.046875 Z M 78.761719 311.863281 C 78.710938 311.851562 78.660156 311.835938 78.613281 311.824219 C 76.476562 311.242188 74.46875 313.253906 75.046875 315.386719 C 75.0625 315.4375 75.074219 315.488281 75.089844 315.535156 C 75.679688 317.707031 78.496094 318.4375 80.078125 316.855469 C 81.664062 315.269531 80.933594 312.453125 78.761719 311.863281 Z M 75.0625 264.738281 C 76.078125 264.050781 75.476562 262.132812 74.171875 262.621094 C 64.9375 266.074219 60.128906 276.035156 59.042969 285.402344 C 58.308594 291.742188 57.527344 310.058594 67.976562 309.347656 C 69.492188 309.242188 70.808594 307.558594 69.835938 306.105469 C 62.492188 295.125 63.277344 272.761719 75.0625 264.738281 Z M 21.816406 142.914062 C 19.917969 142.914062 18.101562 144.582031 18.191406 146.539062 C 18.277344 148.503906 19.78125 150.164062 21.816406 150.164062 C 23.710938 150.164062 25.527344 148.496094 25.441406 146.539062 C 25.351562 144.574219 23.847656 142.914062 21.816406 142.914062 Z M 46.449219 88.945312 C 35.324219 85.839844 23.363281 91.277344 16.578125 100.34375 C 10.285156 108.746094 5.792969 125.140625 14.179688 133.605469 C 15.402344 134.839844 17.15625 133.808594 17.324219 132.300781 C 17.832031 127.757812 16.628906 123.28125 16.785156 118.726562 C 16.957031 113.695312 18.230469 108.738281 20.867188 104.417969 C 26.371094 95.410156 36.039062 91.285156 46.238281 90.492188 C 47.09375 90.425781 47.34375 89.195312 46.449219 88.945312 Z M 146.09375 175.714844 C 144.191406 175.714844 142.371094 177.386719 142.457031 179.351562 C 142.546875 181.320312 144.054688 182.988281 146.09375 182.988281 C 147.996094 182.988281 149.816406 181.316406 149.730469 179.351562 C 149.640625 177.382812 148.132812 175.714844 146.09375 175.714844 Z M 160.886719 125.964844 C 152.996094 130.429688 146.921875 136.058594 142.777344 144.242188 C 139.632812 150.449219 135.660156 160.5 139.214844 167.167969 C 139.785156 168.242188 141.585938 168.304688 142.136719 167.167969 C 143.601562 164.15625 143.484375 161.070312 144.046875 157.800781 C 144.65625 154.253906 145.730469 150.765625 147.144531 147.460938 C 150.3125 140.070312 155.636719 132.878906 162.097656 128.042969 C 163.308594 127.140625 162.269531 125.183594 160.886719 125.964844 Z M 306.097656 159.121094 C 305.070312 158.085938 304.347656 156.980469 304.519531 155.480469 C 304.6875 154.042969 302.226562 153.699219 301.980469 155.136719 C 301.667969 156.976562 302.128906 158.726562 303.300781 160.195312 C 304.199219 161.324219 306.085938 162.925781 307.636719 162.738281 C 308.121094 162.679688 308.53125 162.289062 308.378906 161.761719 C 308.0625 160.640625 306.890625 159.914062 306.097656 159.121094 Z M 307.324219 119.265625 C 299.289062 122.890625 289.652344 138.796875 294.753906 147.273438 C 295.25 148.101562 296.480469 147.90625 296.761719 147.011719 C 298.035156 142.976562 298.125 138.804688 299.734375 134.816406 C 301.585938 130.234375 304.410156 124.183594 308.539062 121.34375 C 309.828125 120.453125 308.726562 118.632812 307.324219 119.265625 Z M 227.566406 62.535156 C 227.835938 63.769531 226.441406 65.199219 225.230469 64.328125 C 218.242188 59.320312 216.050781 48.816406 216.597656 40.679688 C 217.253906 30.882812 221.773438 23.109375 229.070312 16.792969 C 230.558594 15.503906 232.378906 17.417969 231.195312 18.914062 C 226.183594 25.230469 223.070312 33.652344 222.847656 41.699219 C 222.640625 49.328125 226 55.367188 227.566406 62.535156"/></g><g id="change5_1"><path fill="#7a2731" d="M 233.984375 56.667969 C 233.277344 56.667969 232.585938 56.675781 231.914062 56.6875 L 231.546875 56.691406 C 230.339844 56.707031 229.371094 57.617188 229.246094 58.859375 C 229.121094 60.058594 229.84375 61.070312 231.003906 61.324219 C 232.152344 61.578125 233.382812 61.734375 234.683594 61.894531 C 238.324219 62.347656 242.085938 62.816406 243.785156 65.527344 C 245.335938 68.003906 244.824219 70.464844 244.230469 73.3125 C 243.90625 74.871094 243.574219 76.484375 243.582031 78.171875 C 243.585938 79.46875 244.617188 80.484375 245.929688 80.484375 C 246.527344 80.484375 247.097656 80.257812 247.535156 79.851562 C 252.183594 75.550781 252.011719 67.203125 248.949219 62.40625 C 245.730469 57.363281 239.855469 56.667969 233.984375 56.667969 Z M 317.433594 271.171875 C 317.097656 271.171875 316.765625 271.183594 316.433594 271.207031 C 315.5 271.273438 314.804688 271.988281 314.78125 272.90625 C 314.757812 273.824219 315.441406 274.605469 316.371094 274.722656 C 318.875 275.027344 321.636719 276.953125 322.800781 279.207031 C 323.351562 280.277344 323.96875 281.523438 324.292969 282.777344 C 324.390625 283.144531 324.433594 283.507812 324.480469 283.894531 C 324.582031 284.734375 324.699219 285.683594 325.378906 286.660156 C 325.769531 287.222656 326.394531 287.558594 327.054688 287.558594 C 327.554688 287.558594 328.039062 287.363281 328.417969 287.015625 C 329.972656 285.570312 330.953125 282.453125 326.773438 275.808594 C 324.945312 272.90625 321.453125 271.171875 317.433594 271.171875 Z M 271.789062 308.859375 L 271.613281 308.851562 C 270.859375 308.851562 270.210938 309.34375 270 310.078125 C 269.777344 310.851562 270.082031 311.683594 270.746094 312.097656 C 274.269531 314.308594 277.015625 316.398438 278.984375 319.410156 C 279.921875 320.84375 280.695312 322.46875 281.347656 324.367188 C 281.476562 324.742188 281.570312 325.085938 281.660156 325.410156 C 281.976562 326.535156 282.296875 327.699219 283.5625 328.777344 C 283.90625 329.074219 284.371094 329.242188 284.828125 329.242188 C 285.527344 329.242188 286.144531 328.859375 286.4375 328.238281 C 288.359375 324.148438 284.359375 318.042969 282.550781 315.609375 C 280.46875 312.804688 276.910156 309.359375 271.789062 308.859375 Z M 311.078125 225.132812 C 310.847656 225.132812 310.625 225.183594 310.414062 225.277344 C 305.347656 227.5625 303.273438 232.726562 301.433594 237.304688 C 299.773438 241.433594 296.6875 249.117188 299.632812 254.496094 C 299.972656 255.117188 300.59375 255.488281 301.296875 255.488281 C 302.15625 255.488281 302.917969 254.945312 303.195312 254.132812 C 303.96875 251.863281 304.273438 249.5 304.566406 247.214844 C 304.847656 245.035156 305.136719 242.785156 305.839844 240.683594 C 306.03125 240.109375 306.222656 239.519531 306.414062 238.917969 C 307.6875 234.964844 309.128906 230.480469 312.160156 227.929688 C 312.671875 227.5 312.855469 226.824219 312.632812 226.214844 C 312.394531 225.566406 311.773438 225.132812 311.078125 225.132812 Z M 441.539062 266 L 441.769531 264.136719 C 441.832031 263.605469 441.671875 263.097656 441.324219 262.703125 C 440.949219 262.28125 440.394531 262.039062 439.804688 262.039062 C 439.078125 262.039062 438.421875 262.425781 438.09375 263.046875 C 436.25 266.558594 435.292969 270.359375 435.171875 274.660156 L 435.167969 274.792969 C 435.085938 277.65625 434.957031 281.980469 438.421875 283.539062 C 438.734375 283.679688 439.058594 283.75 439.386719 283.75 C 440.523438 283.75 441.421875 282.902344 441.527344 281.738281 C 441.628906 280.617188 441.394531 279.804688 441.164062 279.019531 C 441.074219 278.699219 440.972656 278.363281 440.898438 277.980469 C 440.621094 276.570312 440.707031 275.007812 440.785156 273.480469 C 440.917969 270.992188 441.234375 268.453125 441.539062 266 Z M 346.757812 208.339844 C 346.359375 208.339844 345.96875 208.480469 345.652344 208.738281 C 344.675781 209.535156 343.863281 210.355469 343.078125 211.148438 C 341.269531 212.980469 339.839844 214.425781 337.136719 214.933594 C 336.191406 215.113281 335.160156 215.203125 334.074219 215.203125 C 331.472656 215.203125 328.535156 214.675781 325.808594 213.722656 C 325.601562 213.648438 325.390625 213.613281 325.175781 213.613281 C 324.4375 213.613281 323.765625 214.070312 323.460938 214.773438 C 323.140625 215.507812 323.28125 216.347656 323.8125 216.910156 C 325.890625 219.128906 329.835938 220.449219 334.363281 220.449219 C 334.363281 220.449219 334.363281 220.449219 334.367188 220.449219 C 339.40625 220.449219 343.878906 218.851562 346.335938 216.171875 C 347.921875 214.441406 348.648438 212.277344 348.445312 209.910156 C 348.367188 209.015625 347.640625 208.339844 346.757812 208.339844 Z M 385.308594 273.703125 C 384.8125 273.621094 384.304688 273.554688 383.792969 273.484375 C 382.5 273.308594 381.164062 273.125 380.019531 272.714844 L 379.574219 272.558594 C 378.144531 272.050781 375.746094 271.199219 374.785156 270.390625 C 374.449219 270.109375 374.019531 269.953125 373.570312 269.953125 C 372.820312 269.953125 372.128906 270.367188 371.8125 271.011719 C 371.511719 271.613281 371.589844 272.304688 372.011719 272.859375 C 375.242188 277.109375 379.765625 278.210938 384.117188 278.972656 C 384.289062 279.003906 384.457031 279.015625 384.621094 279.015625 C 386.222656 279.015625 387.289062 277.671875 387.394531 276.375 C 387.507812 275.023438 386.648438 273.925781 385.308594 273.703125 Z M 217.136719 203.8125 C 216.808594 203.648438 216.488281 203.492188 216.1875 203.324219 C 215.109375 202.726562 214.007812 202.304688 212.941406 201.898438 C 212.605469 201.769531 212.273438 201.644531 211.9375 201.507812 C 211.710938 201.417969 211.476562 201.371094 211.238281 201.371094 C 210.445312 201.371094 209.734375 201.878906 209.429688 202.664062 C 209.125 203.445312 209.308594 204.300781 209.898438 204.84375 L 210.53125 205.433594 C 211.425781 206.269531 212.347656 207.136719 213.441406 207.890625 C 213.710938 208.078125 213.980469 208.28125 214.257812 208.488281 C 215.277344 209.25 216.4375 210.117188 217.820312 210.4375 C 218.039062 210.492188 218.257812 210.515625 218.472656 210.515625 C 219.496094 210.515625 220.398438 209.9375 220.832031 209.007812 C 221.285156 208.035156 221.132812 206.910156 220.425781 206.070312 C 219.535156 205.011719 218.261719 204.375 217.136719 203.8125 Z M 228.96875 177.414062 C 226.253906 177.414062 223.101562 178.222656 220.535156 179.574219 C 215.230469 182.371094 211.355469 187.6875 209.015625 195.371094 C 208.792969 196.101562 208.925781 196.871094 209.382812 197.488281 C 209.878906 198.160156 210.703125 198.574219 211.53125 198.574219 C 212.457031 198.574219 213.242188 198.070312 213.632812 197.21875 C 215.472656 193.214844 217.550781 189.070312 220.949219 186.222656 C 223.085938 184.429688 225.726562 183.335938 228.199219 183.21875 C 228.304688 183.214844 228.410156 183.210938 228.511719 183.210938 C 229.507812 183.210938 230.5 183.417969 231.554688 183.640625 C 232.597656 183.855469 233.675781 184.082031 234.882812 184.117188 C 235.617188 184.117188 236.300781 183.699219 236.660156 183.03125 C 237.015625 182.375 236.984375 181.589844 236.585938 180.988281 C 235.039062 178.652344 232.40625 177.414062 228.96875 177.414062 Z M 318.625 176.511719 C 319.261719 176.511719 319.851562 176.226562 320.238281 175.730469 C 322.3125 173.0625 324.421875 170.59375 327.371094 169.714844 C 328.054688 169.511719 328.753906 169.410156 329.441406 169.410156 C 331.550781 169.410156 333.691406 170.34375 335.984375 172.269531 C 336.300781 172.53125 336.695312 172.675781 337.101562 172.675781 C 337.625 172.675781 338.109375 172.445312 338.433594 172.039062 C 338.753906 171.636719 338.871094 171.113281 338.753906 170.59375 C 337.734375 166.117188 333.269531 164.109375 329.300781 164.109375 C 328.777344 164.109375 328.253906 164.144531 327.742188 164.210938 C 322.878906 164.839844 318.554688 168.410156 316.449219 173.527344 C 316.1875 174.164062 316.265625 174.867188 316.65625 175.453125 C 317.085938 176.097656 317.859375 176.511719 318.625 176.511719 Z M 102.246094 252.257812 C 102.105469 252.234375 101.964844 252.222656 101.832031 252.222656 C 100.675781 252.222656 99.714844 253.058594 99.550781 254.214844 C 99.390625 255.320312 100.050781 256.320312 101.148438 256.640625 C 105.085938 257.796875 108.441406 259.863281 111.113281 262.777344 C 112.890625 264.71875 113.867188 266.90625 114.898438 269.222656 C 115.40625 270.367188 115.933594 271.550781 116.574219 272.742188 C 116.921875 273.386719 117.550781 273.773438 118.25 273.773438 C 119.273438 273.773438 120.175781 272.964844 120.304688 271.933594 C 120.996094 266.535156 116.75 261.203125 114.890625 259.164062 C 111.582031 255.535156 107.09375 253.078125 102.246094 252.257812 Z M 68.34375 119.382812 C 68.109375 119.382812 67.878906 119.417969 67.644531 119.488281 C 62.765625 120.945312 58.105469 127.234375 56.820312 132.195312 C 55.785156 136.167969 56.578125 144.675781 61.769531 146.769531 C 61.984375 146.859375 62.214844 146.902344 62.453125 146.902344 C 63.035156 146.902344 63.625 146.628906 64.027344 146.167969 C 64.40625 145.742188 64.582031 145.191406 64.515625 144.660156 C 64.308594 143.054688 63.800781 141.574219 63.308594 140.148438 C 62.667969 138.28125 62.0625 136.515625 62.183594 134.636719 C 62.417969 130.960938 65.769531 125.089844 69 123.894531 C 70.09375 123.492188 70.710938 122.40625 70.503906 121.257812 C 70.308594 120.152344 69.417969 119.382812 68.34375 119.382812 Z M 217.675781 124.730469 C 218.007812 124.886719 218.355469 124.964844 218.71875 124.964844 C 219.464844 124.964844 220.171875 124.621094 220.613281 124.046875 C 221.039062 123.488281 221.179688 122.765625 220.988281 122.066406 C 219.859375 117.839844 215.277344 115.667969 211.597656 113.925781 C 211.148438 113.710938 210.710938 113.503906 210.296875 113.300781 C 206.605469 111.484375 202.171875 109.625 197.304688 109.625 C 196.742188 109.625 196.175781 109.648438 195.605469 109.699219 C 194.546875 109.796875 193.707031 110.695312 193.660156 111.785156 C 193.617188 112.785156 194.285156 113.605469 195.28125 113.785156 C 199.570312 114.558594 203.445312 115.996094 207.488281 118.3125 C 208.875 119.105469 210.269531 120.070312 211.613281 121.003906 C 213.550781 122.34375 215.546875 123.730469 217.675781 124.730469 Z M 165.425781 204.507812 C 167.710938 210.199219 166.828125 218.636719 161.863281 222.136719 C 161.5625 222.351562 161.207031 222.460938 160.832031 222.460938 C 160.296875 222.460938 159.777344 222.234375 159.40625 221.832031 C 159.050781 221.449219 158.871094 220.964844 158.910156 220.457031 C 159.042969 218.628906 159.507812 216.953125 159.957031 215.332031 C 160.660156 212.804688 161.328125 210.414062 160.601562 207.734375 C 159.277344 202.839844 155.402344 200.554688 148.40625 200.539062 C 147.105469 200.539062 146.117188 199.609375 146.058594 198.328125 C 145.996094 196.988281 146.953125 195.882812 148.289062 195.753906 C 149.25 195.660156 150.1875 195.617188 151.074219 195.617188 C 158.222656 195.617188 163.050781 198.609375 165.425781 204.507812"/></g></g></svg>