<svg version="1.1" viewBox="0 0 96 96" xmlns="http://www.w3.org/2000/svg" xmlns:xlink="http://www.w3.org/1999/xlink" id="Icons_Image" overflow="hidden"><style>
.MsftOfcThm_Accent1_lumMod_75_Fill {
 fill:#2F5597; 
}
</style>
<path d=" M 78 65.6 L 64.31 43.78 C 64.065 43.3801 63.6289 43.1374 63.16 43.14 C 62.689 43.1398 62.2509 43.3815 62 43.78 L 58 50.2 L 66.58 64.08 C 67.3061 65.178 67.4622 66.5574 67 67.79 L 76.7 67.79 C 77.4943 67.8297 78.1704 67.2179 78.21 66.4236 C 78.2245 66.1342 78.1513 65.8472 78 65.6 Z" class="MsftOfcThm_Accent1_lumMod_75_Fill" stroke="none" stroke-width="1" stroke-dasharray="" stroke-dashoffset="1" fill="#2F5597" fill-opacity="1"/><path d=" M 63.1 65.73 L 41.35 30.34 C 41.0709 29.9795 40.6357 29.7749 40.18 29.79 L 40 29.79 L 39.82 29.79 C 39.3643 29.7749 38.9291 29.9795 38.65 30.34 L 16.9 65.73 C 16.5919 66.1611 16.5495 66.7279 16.79 67.2 C 17.0326 67.6278 17.5135 67.8623 18 67.79 L 62 67.79 C 62.4865 67.8623 62.9674 67.6278 63.21 67.2 C 63.4505 66.7279 63.4081 66.1611 63.1 65.73 Z M 43.64 46.92 L 40.18 50 L 36.72 46.92 L 31 50.38 L 40 35.79 L 48.76 50 Z" class="MsftOfcThm_Accent1_lumMod_75_Fill" stroke="none" stroke-width="1" stroke-dasharray="" stroke-dashoffset="1" fill="#2F5597" fill-opacity="1"/><circle cx="27" cy="32" r="3" class="MsftOfcThm_Accent1_lumMod_75_Fill" stroke="none" stroke-width="1" stroke-dasharray="" stroke-dashoffset="1" fill="#2F5597" fill-opacity="1"/><path d=" M 14 74 L 14 24 L 82 24 L 82 74 Z M 88 80 L 88 18 L 8 18 L 8 80 Z" class="MsftOfcThm_Accent1_lumMod_75_Fill" stroke="none" stroke-width="1" stroke-dasharray="" stroke-dashoffset="1" fill="#2F5597" fill-opacity="1"/></svg>